<?xml version="1.0" encoding="utf-8"?>
<!-- Generator: Adobe Illustrator 23.0.3, SVG Export Plug-In . SVG Version: 6.00 Build 0)  -->
<svg version="1.1" id="Layer_1" xmlns="http://www.w3.org/2000/svg" xmlns:xlink="http://www.w3.org/1999/xlink" x="0px" y="0px"
	 viewBox="0 0 1200 1200" enable-background="new 0 0 1200 1200" xml:space="preserve">
<g>
	<path fill="#FFFFFF" d="M657.123,247.635c2.004-0.575,3.981-1.512,6.017-1.666c14.724-1.113,29.462-2.043,44.192-3.086
		c6.309-0.447,12.602-1.106,18.913-1.512c3.775-0.243,7.61-0.552,11.344-0.148c3.309,0.358,6.692,1.382,8.166,5.063
		c-1.877,6.465-6.073,12.166-5.195,19.549c1.544,12.984-3.327,24.303-10.323,34.865c-5.347,8.074-7.862,16.862-7.709,26.593
		c0.234,14.917,0.32,29.759,2.441,44.644c3.104,21.777,10.61,41.159,26.019,57.15c2.966,3.078,6.544,5.813,8.657,9.403
		c2.809,4.77,6.968,7.237,11.485,9.747c8.266,4.593,16.039,10.045,21.591,17.789c5.209,7.267,10.177,14.816,14.285,22.742
		c11.242,21.688,18.916,44.622,23.936,68.599c1.524,7.279,0.649,13.284-2.003,19.653c-1.691,4.06-4.591,7.137-7.586,10.218
		c-2.968,3.052-5.985,6.116-8.512,9.522c-2.079,2.804-2.56,5.896-0.942,9.592c3.19,7.291,7.985,13.162,14.195,17.859
		c10.295,7.786,21.489,13.915,34.303,16.429c5.922,1.161,11.453,3.269,16.995,5.524c7.503,3.053,14.904,6.628,22.694,8.638
		c12.019,3.1,23.916,3.895,31.067-9.701c2.396-4.556,6.911-4.092,11.213-4.494c9.449-0.882,13.008-4.282,13.614-13.593
		c0.317-4.87,1.2-8.852,4.529-12.801c4.464-5.295,6.994-11.545,4.219-18.928c-1.175-3.127-0.825-6.801-1.815-10.028
		c-2.082-6.782-1.492-13.268-0.023-20.145c1.766-8.263,4.722-16.568,3.312-25.214c-3.48-21.334-10.217-41.393-24.196-58.385
		c-2.935-3.567-5.365-7.337-7.351-11.327c2.821-2.228,5.505-1.314,7.98-1.654c13.69,10.376,25.548,22.679,37.024,35.365
		c7.717,8.53,12.442,18.303,12.018,30.153c-0.201,5.624,1.116,11.039,3.072,16.283c4.179,11.208,4.732,22.418,0.755,33.862
		c-3.436,9.887-3.664,19.927-1.718,30.316c2.135,11.4,1.856,22.894-1.12,34.326c-2.255,8.662-3.886,17.516-5.266,26.368
		c-1.464,9.395-3.788,18.469-8.735,26.604c-2.596,4.268-2.281,7.687,0.35,11.765c3.933,6.096,7.514,12.443,10.868,18.879
		c2.954,5.669,5.669,11.498,7.997,17.449c4.785,12.232,6.355,24.748,2.415,37.618c-4.528,14.79-3.773,29.47,0.882,44.142
		c1.802,5.678,3.094,11.547,4.205,17.407c1.571,8.28,0.286,16.143-4.352,23.358c-1.614,2.511-2.934,5.209-4.416,7.806
		c-1.559,2.732-1.831,5.552-1.166,8.646c1.076,5.005,1.654,10.121,2.841,15.096c2.266,9.498,1.051,18.653-2.351,27.59
		c-4.565,11.993-10.483,23.245-18.953,33.013c-0.677-2.454-1.043-5.391-4.78-4.185c-2.018,0.651-3.858,1.838-5.861,2.55
		c-10.818,3.846-21.608,8.239-33.16,8.839c-10.631,0.553-21.068,2.525-31.674,3.326c-14.306,1.08-28.354,5.239-42.651,6.842
		c-28.423,3.185-49.626,19.484-69.194,37.994c-11.069,10.471-18.776,24.125-27.099,36.994c-1.198,1.853-1.627,3.897-1.288,6.097
		c0.307,1.995,1.609,3.128,3.454,2.87c1.637-0.229,3.209-1.113,4.746-1.843c13.489-6.406,27.424-11.634,41.737-15.865
		c6.517-1.926,13.001-4.186,19.871-4.295c10.663-0.168,21.399-0.808,31.979,0.141c11.441,1.026,22.769,3.805,31.814,11.657
		c5.141,4.462,10.104,9.272,14.392,14.54c6.44,7.915,13.182,15.996,10.769,27.499c-2.682,0.902-3.745,3.195-5.025,5.461
		c-2.726,4.827-5.371,9.758-8.653,14.2c-7.271,9.84-17.454,14.988-29.465,16.051c-6.758,0.598-13.721,1.098-20.322-1.314
		c-3.491-1.276-6.577-0.69-9.909,0.554c-4.391,1.638-8.959,2.798-13.445,4.182c-7.064,2.178-14.1,3.433-21.19,0.006
		c-3.748-1.812-7.59-0.446-11.333,0.128c-23.709,3.636-36.218-2.884-45.915-24.665c-2.763-6.205-4.609-12.842-6.569-19.373
		c-1.449-4.827-2.401-9.804-3.526-14.512c-2.949-0.879-4.285,1.013-5.795,2.42c-1.875,1.748-3.747,3.513-5.476,5.403
		c-13.244,14.477-30.301,19.879-49.258,20.761c-3.415,0.159-6.838,0.277-10.255,0.225c-8.248-0.126-16.107,1.279-23.55,5.041
		c-8.947,4.523-18.114,4.153-27.342,0.734c-11.028-4.086-20.487-10.484-28.415-19.144c-1.725-1.884-2.912-5.066-4.957-5.709
		c-7.746-2.435-9.424-9.283-12.508-15.276c-6.451-12.532-12.806-25.126-19.703-37.412c-3.538-6.302-8.124-12.02-12.317-17.945
		c-0.957-1.353-1.989-2.825-3.999-2.889c-2.156,1.858-1.979,4.582-2.139,6.975c-1.286,19.269-6.081,37.931-9.695,56.793
		c-2.01,10.493-4.224,20.943-4.557,31.664c-0.448,14.447-7.813,23.875-20.869,29.433c-9.288,3.954-18.618,6.006-28.62,2.814
		c-7.107-2.268-14.418-1.839-21.575-0.283c-13.845,3.009-27.191,2.097-39.887-4.469c-3.332-1.723-6.374-1.82-9.75-0.245
		c-4.865,2.269-10.115,1.967-15.121,0.952c-7.963-1.614-15.617-4.359-22.892-8.057c-8.425-4.282-12.907-11.082-12.546-20.593
		c0.288-7.587,1.577-15.111-0.368-22.724c-0.591-2.313,0.191-5.126,0.841-7.578c2.004-7.562,2.114-15.196,1.414-22.898
		c1.582,0.635,3.141,1.72,4.747,1.796c2.518,0.119,3.486-2.162,4.253-4.116c1.246-3.17,2.574-6.363,3.308-9.671
		c6.306-28.41,21.574-50.798,45.497-67.147c11.363-7.765,23.5-13.941,37.969-13.296c2.935,0.131,6.05-0.114,8.834-0.982
		c6.365-1.983,12.642-1.97,18.883,0.003c5.031,1.591,10.147,1.418,15.241,1.193c5.658-0.25,7.708-3.144,6.069-8.375
		c-1.141-3.641-2.548-7.241-4.252-10.651c-1.645-3.292-3.854-3.726-7.342-2.099c-5.526,2.577-5.639,2.655-8.803-1.939
		c-7.99-11.605-16.488-22.575-27.939-31.255c-6.463-4.899-12.608-10.195-19.841-13.89c-7.633-3.9-14.659-8.7-21.788-13.393
		c-4.369-2.877-7.872-6.404-10.978-10.566c-4.835-6.478-9.958-12.742-15.019-19.05c-1.351-1.683-2.789-3.307-2.886-5.564
		c-0.371-8.615-3.335-16.686-5.487-24.886c-1.579-6.019-1.653-11.162,0.885-17.169c2.558-6.053,5.151-12.608,3.607-19.769
		c-3.863-17.927-1.683-35.529,3.145-52.989c1.957-7.078,5.094-13.511,9.176-19.559c6.919-10.251,14.07-20.363,20.583-30.868
		c5.887-9.497,9.945-19.668,6.991-31.297c-0.644-2.537-0.031-5.03,0.713-7.542c2.075-7.013,5.036-13.543,9.136-19.639
		c5.231-7.778,10.388-15.629,15.11-23.72c3.874-6.637,4.231-14.152,1.054-20.956c-2.825-6.051-3.381-12.245-4.051-18.579
		c9.453-10.729,15.813-23.092,20.294-36.649c5.338-16.151,14.821-29.707,27.631-40.914c1.607-1.406,3.087-3.023,4.876-4.143
		c5.718-3.581,8.271-8.341,6.361-15.1c-0.219-0.775,0.057-1.69,0.104-2.538c4.44,4.533,9.117,8.77,14.545,12.122
		c4.859,3,6.408,7.596,6.531,13.08c0.111,4.967-1.472,9.305-4.363,13.103c-4.125,5.418-8.334,10.811-12.951,15.803
		c-3.227,3.489-6.008,7.23-8.389,11.258c-6.289,10.64-7.503,21.41-1.192,32.709c5.308,9.504,11.546,18.039,21.328,23.217
		c12.606,6.671,25.735,10.388,40.374,7.96c10.934-1.813,22.233-2.204,33.103,0.111c7.262,1.546,14.413,1.782,21.608,1.507
		c12.768-0.488,22.58-7.549,20.882-21.584c-0.915-7.565-1.277-15.636,0.341-22.989c5.387-24.474,9.321-49.384,19.375-72.639
		c3.718-8.6,7.096-17.347,10.748-25.976c1.494-3.53,3.395-6.668,6.661-9.157c12.955-9.873,18.366-23.945,21.933-39.285
		c2.753-11.838,2.643-23.719,2.307-35.619c-0.578-20.441-9.602-35.937-28.357-44.995c-7.671-3.705-15.653-6.762-23.359-10.399
		c-3.367-1.589-8.225-2.529-8.706-6.757c-0.618-5.436,4.593-7.677,8.253-10.399c2.026-1.507,4.524-2.38,6.813-3.533
		c4.196-2.114,8.456-4.109,12.579-6.357c12.41-6.768,16.914-15.862,14.826-29.673c-0.443-2.929-2.174-4.54-5.142-4.642
		C666.495,247.832,661.808,247.75,657.123,247.635z"/>
	<path fill="#F6BE72" d="M442.165,560.474c0.67,6.334,1.226,12.528,4.051,18.579c3.177,6.804,2.82,14.319-1.054,20.956
		c-4.723,8.091-9.879,15.942-15.11,23.72c-4.099,6.096-7.061,12.625-9.136,19.639c-0.744,2.513-1.357,5.005-0.713,7.542
		c2.954,11.629-1.104,21.8-6.991,31.297c-6.513,10.505-13.663,20.616-20.583,30.868c-4.082,6.048-7.22,12.481-9.176,19.559
		c-4.827,17.46-7.008,35.061-3.145,52.989c1.543,7.161-1.05,13.715-3.607,19.769c-2.538,6.007-2.464,11.15-0.885,17.169
		c2.152,8.2,5.116,16.271,5.487,24.886c0.097,2.256,1.536,3.88,2.886,5.564c5.061,6.307,10.184,12.572,15.019,19.05
		c3.106,4.162,6.61,7.689,10.978,10.566c7.128,4.693,14.155,9.493,21.788,13.393c7.233,3.696,13.378,8.991,19.841,13.89
		c11.451,8.68,19.949,19.649,27.939,31.255c3.164,4.594,3.277,4.517,8.803,1.939c3.488-1.627,5.697-1.193,7.342,2.099
		c1.704,3.41,3.111,7.01,4.252,10.651c1.639,5.231-0.411,8.125-6.069,8.375c-5.094,0.225-10.21,0.398-15.241-1.193
		c-6.241-1.973-12.518-1.985-18.883-0.003c-2.784,0.867-5.899,1.112-8.834,0.982c-14.469-0.645-26.606,5.531-37.969,13.296
		c-23.923,16.349-39.191,38.737-45.497,67.147c-0.734,3.307-2.062,6.501-3.308,9.671c-0.767,1.953-1.735,4.235-4.253,4.116
		c-1.607-0.076-3.166-1.16-4.747-1.796c-4.156-7.359-8.395-14.671-12.438-22.088c-2.656-4.872-4.63-10.099-4.717-15.685
		c-0.074-4.741-2.664-6.829-6.665-7.993c-12.187-3.546-24.384-7.055-36.56-10.638c-2.007-0.591-3.926-1.481-5.89-2.233
		c-6.88-3.167-12.209-7.401-11.113-16.076c-4.745-18.378-16.016-31.632-32.533-40.403c-7.174-3.81-15.249-5.927-23.344-4.972
		c-19.794,2.337-37.772,9.37-52.798,22.902c-2.528,2.277-4.722,4.96-8.444,5.268c-2.346-0.785-3.329-2.565-3.243-4.88
		c1.041-28.131,1.928-56.27,3.258-84.388c0.829-17.52,4.06-34.76,7.328-51.97c3.105-16.354,5.531-32.863,9.335-49.05
		c3.215-13.681,7.616-27.121,12.151-40.443c4.546-13.355,8.703-26.789,11.989-40.503c1.892-7.897,4.41-15.576,7.558-23.093
		c2.973-7.101,7.265-12.856,14.853-14.783c7.912-2.009,12.022-7.588,15.555-14.095c3.057-5.63,6.389-11.134,9.068-16.94
		c4.424-9.586,11.754-15.28,21.643-18.558c12.638-4.189,25.639-6.444,38.721-8.458c4.638-0.714,9.306-1.275,13.906-2.18
		c15.11-2.973,30.194-4.364,45.739-4.046c24.148,0.493,46.404-6.231,64.421-23.605C435.867,564.898,439.14,562.814,442.165,560.474z
		"/>
	<path fill="#F6BE72" d="M942.637,468.531c-2.475,0.34-5.159-0.574-7.98,1.654c1.986,3.99,4.417,7.759,7.351,11.327
		c13.978,16.991,20.716,37.051,24.196,58.385c1.411,8.646-1.546,16.952-3.312,25.214c-1.47,6.877-2.059,13.363,0.023,20.145
		c0.991,3.227,0.641,6.901,1.815,10.028c2.774,7.383,0.244,13.633-4.219,18.928c-3.329,3.949-4.212,7.931-4.529,12.801
		c-0.606,9.311-4.165,12.711-13.614,13.593c-4.302,0.402-8.817-0.062-11.213,4.494c-7.151,13.597-19.048,12.802-31.067,9.701
		c-7.791-2.009-15.191-5.585-22.694-8.638c-5.541-2.255-11.073-4.363-16.995-5.524c-12.814-2.513-24.008-8.642-34.303-16.429
		c-6.21-4.697-11.005-10.568-14.195-17.859c-1.617-3.697-1.137-6.789,0.942-9.592c2.527-3.406,5.544-6.469,8.512-9.522
		c2.995-3.08,5.895-6.158,7.586-10.218c2.653-6.369,3.527-12.374,2.003-19.653c-5.02-23.977-12.695-46.912-23.936-68.599
		c-4.108-7.926-9.076-15.475-14.285-22.742c-5.552-7.745-13.325-13.196-21.591-17.789c-4.517-2.51-8.676-4.977-11.485-9.747
		c-2.114-3.59-5.692-6.325-8.657-9.403c-15.409-15.991-22.915-35.373-26.019-57.15c-2.121-14.885-2.207-29.727-2.441-44.644
		c-0.153-9.731,2.363-18.52,7.709-26.593c6.995-10.563,11.867-21.882,10.323-34.865c-0.878-7.382,3.318-13.083,5.195-19.549
		c5.655-1.123,11.122,0.036,16.339,1.932c6.615,2.404,13.392,2.37,20.237,2.505c3.894,0.077,6.163-1.504,8.106-4.889
		c7.871-13.714,16.254-27.136,24.042-40.895c13.747-24.285,29.596-46.961,48.808-67.303c12.62-13.362,24.415-27.503,37.049-40.851
		c9.982-10.547,20.435-20.682,31.118-30.524c15.918-14.667,34.385-15.847,53.761-8.352c6.725,2.601,12.973,6.489,19.307,10.025
		c3.794,2.118,6.304,5.602,8.738,9.181c13.662,20.095,22.912,42.038,26.744,66.012c2.508,15.692,2.156,31.61-0.259,47.298
		c-2.987,19.412-6.68,38.718-10.166,58.051c-3.637,20.17-7.917,40.213-10.133,60.642c-1.112,10.253-5.072,19.837-10.254,28.798
		c-2.61,4.512-6.094,8.21-10.77,10.716c-3.39,1.817-6.939,3.595-8.928,7.081c-4.86,8.518-9.672,17.067-14.268,25.729
		c-1.858,3.503-1.425,7.556-1.192,11.363c0.704,11.506-2.918,21.016-12.234,28.103c-13.228,10.063-19.905,23.093-18.401,39.983
		C943.623,463.396,942.914,465.983,942.637,468.531z M840.479,242.574c0.018,12.108,2.79,19.199,10.966,27.69
		c2.077,2.157,4.228,4.243,6.37,6.336c7.042,6.884,13.892,13.841,17.056,23.602c1.084,3.345,3.815,5.675,7.36,6.609
		c3.767,0.993,7.189,2.649,10.445,4.764c5.463,3.549,10.806,6.878,10.03,14.904c-0.325,3.363,2.024,6.439,4.102,9.202
		c2.562,3.406,5.129,6.81,7.742,10.177c4.536,5.844,10.341,10.324,16.76,13.705c5.647,2.975,11.834,4.973,18.51,3.835
		c3.283-0.56,6.092-2.31,6.068-5.6c-0.058-7.727,1.961-14.176,8.29-19.079c2.501-1.937,2.55-5.345,3.404-8.163
		c1.52-5.023,3.41-9.302,8.561-12.069c3.638-1.954,6.538-5.473,9.41-8.62c6.179-6.77,5.969-14.958-0.479-21.629
		c-2.365-2.446-5.117-4.517-7.691-6.762c-2.743-2.392-3.109-4.044-0.781-6.297c3.365-3.254,6.761-6.584,10.602-9.213
		c6.253-4.279,10.5-9.902,13.364-16.786c1.003-2.412,2.265-4.905,1.07-7.373c-3.223-6.657,0.023-11.583,4.105-16.192
		c3.181-3.592,5.551-7.51,7.029-12.073c2.43-7.505,1.474-10.933-4.943-15.107c-1.74-1.132-3.966-1.489-5.877-2.394
		c-4.186-1.983-4.956-4.148-2.808-8.135c1.21-2.247,2.803-4.284,4.086-6.496c3.858-6.653,7.394-13.413,9.973-20.742
		c3.133-8.903,0.34-15.812-5.81-21.98c-1.487-1.492-3.396-2.56-5.089-3.853c-5.51-4.206-5.657-4.93-2.864-11.774
		c1.289-3.159,2.28-6.449,3.714-9.536c2.462-5.301,2.585-10.984,1.699-16.383c-1.726-10.512-6.546-19.341-16.581-24.454
		c-2.767-1.41-5.731-2.497-8.629-1.418c-5.945,2.214-11.55,4.579-15.965,9.973c-8.443,10.313-15.745,21.162-21.65,33.121
		c-5.353,10.841-13.004,19.825-23.194,26.815c-12.654,8.679-24.715,18.216-37.165,27.2c-4.218,3.043-8.049,6.494-11.113,10.564
		c-6.155,8.175-12.29,16.423-17.655,25.121C845.656,215.803,840.783,228.512,840.479,242.574z"/>
	<path fill="#F6BE72" d="M657.123,247.635c4.685,0.115,9.372,0.197,14.056,0.359c2.968,0.102,4.699,1.713,5.142,4.642
		c2.088,13.811-2.416,22.905-14.826,29.673c-4.123,2.248-8.383,4.243-12.579,6.357c-2.288,1.153-4.786,2.027-6.813,3.533
		c-3.66,2.721-8.872,4.963-8.253,10.399c0.481,4.228,5.339,5.169,8.706,6.757c7.706,3.637,15.688,6.694,23.359,10.399
		c18.755,9.059,27.779,24.554,28.357,44.995c0.336,11.901,0.446,23.781-2.307,35.619c-3.567,15.34-8.978,29.412-21.933,39.285
		c-3.266,2.489-5.167,5.627-6.661,9.157c-3.652,8.63-7.03,17.376-10.748,25.976c-10.054,23.254-13.988,48.165-19.375,72.639
		c-1.618,7.352-1.256,15.423-0.341,22.989c1.698,14.035-8.114,21.095-20.882,21.584c-7.195,0.275-14.346,0.039-21.608-1.507
		c-10.87-2.315-22.169-1.925-33.103-0.111c-14.639,2.428-27.768-1.289-40.374-7.96c-9.783-5.177-16.021-13.713-21.328-23.217
		c-6.31-11.299-5.097-22.069,1.192-32.709c2.381-4.028,5.162-7.769,8.389-11.258c4.617-4.993,8.826-10.385,12.951-15.803
		c2.891-3.798,4.474-8.136,4.363-13.103c-0.123-5.483-1.671-10.08-6.531-13.08c-5.429-3.351-10.106-7.589-14.545-12.122
		c0-0.002,0.248,0.136,0.248,0.136c0.064-2.476,0.405-4.982,0.139-7.422c-0.745-6.818-4.271-10.18-11.232-10.778
		c-2.456-0.211-4.954,0.074-7.433,0.133c-4.355-0.247-9.358-0.605-10.954-5.066c-1.941-5.427,3.133-8.196,6.546-11.285
		c1.265-1.145,2.689-2.122,3.905-3.315c3.598-3.528,4.061-5.472,1.544-10.26c-10.963-20.856-25.477-38.518-47.232-48.711
		c-4.964-2.326-7.803-5.18-8.569-9.987c-3.751-23.546-13.662-44.751-24.42-65.668c-1.561-3.035-3.442-6.06-4.217-9.318
		c-3.761-15.82-11.706-30.183-15.766-45.866c-3.958-15.287-7.865-30.593-11.405-45.981c-5.793-25.177-3.245-50.058,3.412-74.705
		c1.684-6.236,4.655-11.896,7.873-17.463c12.743-22.053,34.31-27.173,53.614-23.611c12.289,2.267,23.752,6.86,34.584,13.049
		c19.723,11.269,37.8,24.862,55.468,39.063c13.033,10.475,25.016,22.022,36.055,34.54c9.4,10.658,19.987,19.786,32.111,27.256
		c17.132,10.556,29.964,24.949,38.424,43.372C638.6,238.98,645.865,245.998,657.123,247.635z M562.683,211.314
		c-2.503-4.088-1.479-7.208-2.057-10.08c-0.587-2.917-1.501-5.774-2.364-8.63c-1.751-5.798-6.136-7.706-11.716-7.873
		c-5.647-0.169-5.492-0.251-6.885-4.554c-0.815-2.519-0.555-4.882-0.536-7.437c0.075-10.312-5.633-12.952-12.383-12.016
		c-0.843,0.117-1.666,0.369-2.507,0.51c-7.129,1.191-7.178,1.214-10.063-4.097c-1.632-3.004-3.403-5.994-4.549-9.191
		c-4.319-12.058-11.329-19.75-25.55-18.405c-5.346,0.506-9.536-2.123-11.323-8.225c-2.113-7.216-6.803-13.843-13.771-16.037
		c-10.223-3.219-18.445-8.426-25.206-16.463c-0.779-0.926-2.045-1.633-3.222-1.997c-2.988-0.923-6.152-0.998-8.354,1.499
		c-3.084,3.499-6.656,7.111-7.233,11.84c-0.926,7.597-3.935,14.875-3.183,22.749c0.277,2.902-0.264,5.981-0.941,8.86
		c-3.174,13.484-0.568,26.317,4.781,38.602c5.812,13.346,13.917,25.456,21.845,37.628c3.027,4.648,6.327,9.164,8.886,14.063
		c4.595,8.798,7.678,17.955,4.333,28.109c-0.923,2.802-1.206,5.824-1.691,8.76c-1.831,11.081-2.175,22.135,1.895,32.823
		c3.512,9.227,8.592,17.659,14.156,25.794c6.574,9.612,11.231,19.996,13.912,31.41c2.039,8.681,4.996,17.032,9.775,24.863
		c5.077,8.318,9.927,16.969,11.449,26.97c0.439,2.884,1.786,5.68,3.025,8.375c0.827,1.798,2.69,2.289,4.24,1.022
		c8.501-6.955,14.315-15.695,17.102-26.387c2.686-10.306,5.577-20.562,8.052-30.918c1.017-4.257,2.906-6.757,7.445-7.443
		c7.676-1.161,11.79-5.991,13.355-13.516c1.04-5.002,2.27-9.882,2.627-15.064c0.436-6.326,1.775-12.646,3.317-18.821
		c1.04-4.163,3.461-7.833,7.259-10.256c2.972-1.896,5.658-0.138,8.535,0.587c4.787,1.206,7.163-0.391,8.522-5.119
		c0.351-1.223,0.293-2.562,0.633-3.79c1.952-7.041,3.643-14.249,12.135-16.594c1.72-0.475,2.563-2.143,2.722-3.982
		c1.003-11.605,0.541-23.096-3.819-34.046c-4.731-11.884-13.6-16.833-26.342-15.069
		C566.927,210.053,564.922,210.754,562.683,211.314z"/>
	<path fill="#F6BE72" d="M920.041,1097.735c2.413-11.503-4.329-19.584-10.769-27.498c-4.287-5.268-9.251-10.078-14.392-14.54
		c-9.044-7.852-20.372-10.631-31.814-11.657c-10.58-0.949-21.316-0.308-31.979-0.141c-6.869,0.108-13.354,2.368-19.871,4.295
		c-14.313,4.231-28.249,9.459-41.737,15.865c-1.537,0.73-3.109,1.614-4.746,1.843c-1.845,0.258-3.146-0.875-3.454-2.87
		c-0.339-2.2,0.09-4.244,1.288-6.097c8.323-12.868,16.029-26.523,27.099-36.994c19.568-18.51,40.771-34.809,69.194-37.994
		c14.297-1.602,28.345-5.761,42.651-6.842c10.606-0.801,21.043-2.773,31.674-3.326c11.552-0.601,22.342-4.993,33.16-8.839
		c2.003-0.712,3.843-1.899,5.861-2.55c3.737-1.206,4.104,1.731,4.78,4.185c0,0.001,0.047-0.296,0.047-0.295
		c-6.101,2.127-5.056,7.5-5.533,12.181c-3.677,17.56-5.805,35.141-2.732,53.114c1.724,10.079,1.862,20.339,0.403,30.536
		c-2.528,17.674-13.607,28.927-28.589,36.707c-5.6,2.908-12.303,2.567-18.64,2.477
		C921.302,1099.287,920.675,1098.28,920.041,1097.735z"/>
	<path fill="#FFFFFF" d="M160.848,964.529c3.722-0.309,5.916-2.991,8.444-5.268c15.026-13.532,33.004-20.565,52.798-22.902
		c8.095-0.956,16.17,1.162,23.344,4.972c16.517,8.771,27.788,22.025,32.533,40.403c-1.096,8.675,4.233,12.909,11.113,16.076
		c-5.312-0.099-9.898,1.921-14.306,4.692c-7.509,4.721-15.772,6.704-24.45,4.791c-7.385-1.628-14.477-0.586-21.451,1.247
		c-10.165,2.673-20.08,2.906-30.169-0.304c-4.434-1.411-9.134-2.021-13.739-2.852c-4.66-0.84-9.043-2.396-13.14-4.731
		c-8.584-4.893-12.761-12.184-11.987-22.172C160.2,973.832,161.746,969.268,160.848,964.529z"/>
	<path fill="#FFFFFF" d="M483.153,443.196c2.479-0.059,4.977-0.344,7.433-0.133c6.961,0.599,10.487,3.961,11.232,10.778
		c0.266,2.44-0.075,4.946-0.139,7.422C497.159,453.543,490.861,447.647,483.153,443.196z"/>
	<path fill="#FFFFFF" d="M971.501,976.462c0.477-4.681-0.568-10.054,5.533-12.181C976.478,968.926,974.218,972.797,971.501,976.462z
		"/>
	<path fill="#FFFFFF" d="M840.479,242.574c0.304-14.062,5.177-26.771,12.418-38.511c5.365-8.698,11.5-16.946,17.655-25.121
		c3.065-4.07,6.896-7.52,11.113-10.564c12.45-8.983,24.511-18.521,37.165-27.2c10.19-6.989,17.841-15.974,23.194-26.815
		c5.905-11.96,13.207-22.808,21.65-33.121c4.415-5.393,10.02-7.759,15.965-9.973c2.899-1.079,5.863,0.009,8.629,1.418
		c10.035,5.113,14.854,13.941,16.581,24.454c0.887,5.398,0.763,11.082-1.699,16.383c-1.434,3.087-2.425,6.378-3.714,9.536
		c-2.793,6.844-2.646,7.568,2.864,11.774c1.693,1.292,3.602,2.36,5.089,3.853c6.15,6.168,8.943,13.077,5.81,21.98
		c-2.579,7.329-6.115,14.089-9.973,20.742c-1.282,2.212-2.876,4.249-4.086,6.496c-2.148,3.987-1.377,6.153,2.808,8.135
		c1.911,0.905,4.137,1.262,5.877,2.394c6.416,4.174,7.373,7.603,4.943,15.107c-1.478,4.563-3.848,8.481-7.029,12.073
		c-4.082,4.609-7.328,9.535-4.105,16.192c1.195,2.468-0.066,4.961-1.07,7.373c-2.864,6.884-7.111,12.506-13.364,16.786
		c-3.841,2.629-7.237,5.958-10.602,9.213c-2.328,2.253-1.962,3.905,0.781,6.297c2.574,2.244,5.326,4.315,7.691,6.762
		c6.448,6.671,6.659,14.859,0.479,21.629c-2.872,3.147-5.772,6.666-9.41,8.62c-5.151,2.767-7.041,7.046-8.561,12.069
		c-0.853,2.818-0.903,6.226-3.404,8.163c-6.329,4.902-8.347,11.352-8.29,19.079c0.024,3.291-2.784,5.041-6.068,5.6
		c-6.676,1.138-12.862-0.861-18.51-3.835c-6.419-3.381-12.224-7.861-16.76-13.705c-2.614-3.367-5.18-6.77-7.742-10.177
		c-2.078-2.762-4.427-5.839-4.102-9.202c0.776-8.026-4.567-11.355-10.03-14.904c-3.255-2.115-6.677-3.771-10.445-4.764
		c-3.545-0.934-6.276-3.264-7.36-6.609c-3.163-9.762-10.014-16.719-17.056-23.602c-2.142-2.093-4.293-4.18-6.37-6.336
		C843.269,261.773,840.497,254.682,840.479,242.574z"/>
	<path fill="#FFFFFF" d="M562.683,211.314c2.239-0.561,4.244-1.262,6.307-1.547c12.743-1.764,21.611,3.185,26.342,15.069
		c4.359,10.95,4.822,22.441,3.819,34.046c-0.159,1.839-1.002,3.507-2.722,3.982c-8.492,2.345-10.183,9.553-12.135,16.594
		c-0.34,1.227-0.282,2.567-0.633,3.79c-1.359,4.728-3.735,6.325-8.522,5.119c-2.878-0.725-5.563-2.483-8.535-0.587
		c-3.798,2.423-6.219,6.093-7.259,10.256c-1.542,6.174-2.881,12.494-3.317,18.821c-0.357,5.182-1.588,10.063-2.627,15.064
		c-1.565,7.526-5.68,12.356-13.355,13.516c-4.539,0.686-6.428,3.186-7.445,7.443c-2.475,10.356-5.366,20.612-8.052,30.918
		c-2.787,10.692-8.601,19.431-17.102,26.387c-1.55,1.268-3.413,0.776-4.24-1.022c-1.239-2.694-2.586-5.49-3.025-8.375
		c-1.522-10.001-6.372-18.652-11.449-26.97c-4.78-7.831-7.736-16.181-9.775-24.863c-2.681-11.414-7.338-21.798-13.912-31.41
		c-5.564-8.135-10.643-16.566-14.156-25.794c-4.069-10.688-3.726-21.742-1.895-32.823c0.485-2.936,0.768-5.958,1.691-8.76
		c3.345-10.154,0.262-19.311-4.333-28.109c-2.559-4.899-5.859-9.415-8.886-14.063c-7.928-12.171-16.033-24.282-21.845-37.628
		c-5.35-12.286-7.955-25.118-4.781-38.602c0.677-2.879,1.218-5.957,0.941-8.86c-0.752-7.874,2.257-15.153,3.183-22.749
		c0.576-4.729,4.148-8.341,7.233-11.84c2.202-2.497,5.366-2.422,8.354-1.499c1.177,0.364,2.443,1.07,3.222,1.997
		c6.761,8.038,14.984,13.244,25.206,16.463c6.968,2.194,11.658,8.821,13.771,16.037c1.787,6.102,5.977,8.73,11.323,8.225
		c14.221-1.345,21.23,6.347,25.55,18.405c1.146,3.198,2.916,6.187,4.549,9.191c2.885,5.311,2.934,5.288,10.063,4.097
		c0.841-0.141,1.664-0.393,2.507-0.51c6.751-0.936,12.458,1.704,12.383,12.016c-0.018,2.554-0.279,4.918,0.536,7.437
		c1.392,4.303,1.238,4.385,6.885,4.554c5.58,0.167,9.965,2.076,11.716,7.873c0.862,2.856,1.777,5.712,2.364,8.63
		C561.204,204.107,560.18,207.226,562.683,211.314z"/>
	<path fill="#662B23" d="M721.358,615.75c-3.149-0.365-6.997-0.577-10.74-1.317c-3.316-0.656-6.524-1.766-9.154-4.208
		c-6.017-5.587-9.99-11.224,0.599-18.207c6.376-4.205,12.263-9.163,18.295-13.878c2.69-2.103,5.601-3.706,8.594-5.338
		c4.047-2.207,7.043-2.17,10.142,1.245c6.131,6.754,13.819,11.226,22.111,14.778c1.558,0.668,3.159,1.292,4.602,2.165
		c7.679,4.647,7.591,7.809-0.161,12.178C752.093,610.804,737.803,615.811,721.358,615.75z"/>
	<path opacity="0.5" fill="#F6BE72" d="M367.292,879.136c-3.268,4.956-3.952,9.006-4.474,13.12
		c-1.248,9.855-0.818,19.637,1.251,29.348c1.514,7.106,2.943,14.234,4.605,21.306c2.622,11.154-0.902,20.188-9.166,27.694
		c-1.267,1.15-2.475,2.383-3.843,3.4c-8.878,6.601-14.692,15.252-18.315,25.697c-2.62,7.554-4.644,8.825-12.452,7.556
		c-13.071-2.123-26.061-4.775-39.038-7.434c-4.025-0.825-5.518-3.19-5.573-7.46c-0.044-3.402,0.551-6.877,0.047-10.196
		c-2.139-14.1-8.391-24.787-21.174-33.056c-25.473-16.477-63.697-12.305-84.845,7.097c-2.834,2.6-5.543,5.371-8.595,7.687
		c-4.138,3.14-9.409,1.132-9.416-3.807c-0.019-12.939,1.393-25.676,9.098-36.737c4.703-6.752,11.195-10.487,19.508-10.532
		c6.842-0.037,13.691,0.072,20.528,0.359c10.956,0.461,21.182-2.067,30.953-6.882c5.751-2.834,11.494-5.721,17.41-8.176
		c11.663-4.842,23.278-4.775,34.718,1.009c5.722,2.893,11.433,5.858,17.353,8.294c10.747,4.422,13.508,3.044,16.969-7.65
		c0.395-1.221,0.878-2.427,1.134-3.677c1.864-9.102,5.833-16.936,13.404-22.664c5.329-4.032,6.754-9.629,6.239-15.951
		c-0.243-2.985-0.322-6.013-0.908-8.934c-2.096-10.436-0.634-20.518,3.296-30.184c6.038-14.854,6.561-29.881,2.731-45.29
		c-1.029-4.14-1.596-8.406-2.19-12.64c-2.491-17.779,1.531-33.983,12.031-48.538c6.028-8.357,12.884-16.065,20.526-22.908
		c11.376-10.186,16.43-22.618,15.452-37.721c-0.165-2.554-0.008-5.134,0.082-7.699c0.371-10.55,3.456-20.166,9.89-28.632
		c2.847-3.746,5.654-7.523,8.441-11.315c6.358-8.648,12.149-17.591,15.05-28.108c0.914-3.313,2.397-6.388,4.798-8.967
		c3.05-3.276,7.38-3.16,9.773,0.579c5.889,9.2,7.199,19.029,3.657,29.441c-2.386,7.012-6.471,13.062-11.189,18.594
		c-9.7,11.372-13.323,24.646-12.64,39.199c0.547,11.641-3.852,21.759-8.819,31.737c-4.983,10.01-11.873,18.806-18.717,27.56
		c-5.919,7.572-9.763,15.976-12.309,25.16c-1.623,5.857-2.104,11.791-2.068,17.78c0.038,6.414,0.411,12.825,0.63,19.238
		c0.206,6.009-0.249,11.868-1.977,17.741c-6.538,22.234-1.437,42.822,8.605,63.007c6.755,13.579,16.743,23.499,29.368,31.377
		c10.154,6.336,20.074,13.053,30.013,19.727c11.137,7.478,20.812,16.398,27.38,28.338c1.229,2.233,2.838,4.28,4.436,6.283
		c2.408,3.02,3.862,3.558,7.347,1.079c4.704-3.346,7.766-1.972,10.004,2.986c1.941,4.302,3.544,8.743,3.751,13.521
		c0.131,3.027-2.313,6.1-5.321,6.216c-3.383,0.131-6.871,0.043-10.172-0.638c-19.866-4.098-39.132-0.901-58.266,4.396
		c-2.985,0.826-5.427,2.342-7.4,4.77c-1.62,1.994-3.532,3.69-6.137,4.424c-1.752,0.494-4.776-1.205-4.945-3.007
		c-0.118-1.264-0.175-2.577,0.025-3.822c1.916-11.937-1.342-22.906-6.331-33.505c-4.2-8.924-9.467-17.238-15.074-25.338
		c-3.651-5.275-7.322-10.535-10.972-15.81C371.848,892.348,369.59,886.411,367.292,879.136z"/>
	<path opacity="0.5" fill="#F6BE72" d="M980.844,955.469c-1.96,6.392-5.852,11.256-8.227,17.119
		c-7.83,19.324-8.712,38.954-5.116,59.117c0.974,5.462,2.091,10.907,2.832,16.402c1.373,10.177-0.827,19.683-6.994,27.865
		c-9.318,12.363-20.862,21.341-37.215,21.912c-4.484,0.156-5.83-0.598-5.742-4.723c0.231-10.787-5.466-18.349-12.338-25.758
		c-14.482-15.616-32.596-22.885-53.412-24.189c-25.644-1.608-50.205,2.132-72.921,15.038c-5.915,3.361-12.014,6.545-18.713,8.146
		c-1.006,0.241-2.645-0.393-3.356-1.19c-0.697-0.781-0.761-2.286-0.763-3.473c-0.002-0.781,0.515-1.612,0.943-2.337
		c16.336-27.742,37.636-50.608,65.716-66.793c8.94-5.153,18.506-8.724,28.517-11.146c22.025-5.328,44.207-9.6,66.995-9.48
		C942.383,972.089,962.912,969.482,980.844,955.469z"/>
	<path opacity="0.5" fill="#F6BE72" d="M447.578,275.588c0.626-5.507,1.201-11.02,1.895-16.518c0.481-3.812,1.09-7.609,1.706-11.402
		c1.589-9.783-0.669-18.445-6.444-26.613c-6.155-8.704-11.743-17.829-17.24-26.974c-4.848-8.064-8.717-16.652-11.976-25.489
		c-8.686-23.559-7.186-46.975,1.284-70.201c2.808-7.698,7.227-14.501,12.772-20.558c1.29-1.409,2.991-2.048,4.532-1.238
		c0.688,0.361,1.143,2.537,0.724,3.428c-9.181,19.501-4.216,39.491-1.915,59.296c0.931,8.015,3.056,15.93,5.113,23.766
		c2.433,9.269,7.351,17.241,14.121,24.045c2.411,2.423,4.745,4.93,7.245,7.258c14.444,13.449,21.672,30.44,24.19,49.644
		c1.776,13.546,3.195,27.139,4.757,40.714c0.839,7.287,3.15,14.164,5.866,20.915c2.098,5.214,5.095,9.869,9.301,13.654
		c5.878,5.291,12.163,5.697,18.563,0.869c6.185-4.666,10.995-10.732,15.817-16.72c5.101-6.335,10.25-12.614,16.702-17.64
		c2.668-2.078,5.267-4.557,8.919-4.638c1.119-0.025,2.399,0.692,3.325,1.425c0.42,0.331,0.408,1.628,0.143,2.312
		c-0.455,1.173-1.159,2.29-1.94,3.289c-4.959,6.339-6.556,13.717-7.111,21.544c-0.391,5.524-1.165,11.033-2.027,16.508
		c-1.129,7.167-4.327,13.01-11.601,15.602c-5.35,1.907-8.155,5.928-9.868,10.999c-1.366,4.044-3.071,8.018-3.983,12.164
		c-3.743,17.018-12.713,31.609-21.16,46.454c-1.076,1.89-2.477,3.554-5.039,2.968c-1.941-0.444-2.632-2.1-2.953-3.763
		c-0.728-3.771-1.259-7.58-1.881-11.372c-1.605-9.784-4.671-18.855-10.329-27.269c-6.194-9.213-10.846-19.402-13.854-30.159
		c-3.389-12.117-8.864-23.094-16.757-32.866C450.585,299.26,446.972,288.177,447.578,275.588z"/>
	<path opacity="0.5" fill="#F6BE72" d="M1004.309,74.988c-3.577,1.351-5.924,2.384-8.358,3.131
		c-12.778,3.922-21.202,12.391-25.819,24.754c-2.091,5.599-3.895,11.306-5.792,16.976c-1.491,4.455-2.887,8.941-4.391,13.391
		c-5.697,16.856-15.692,30.145-31.612,38.738c-5.247,2.832-10.239,6.202-15.093,9.681c-6.658,4.771-12.385,10.509-16.087,17.969
		c-5.592,11.269-5.715,22.158,2.413,32.425c1.591,2.01,3.078,4.103,4.711,6.077c6.319,7.641,7.056,16.194,4.245,25.351
		c-1.128,3.674-2.478,7.297-3.333,11.033c-1.057,4.615,0.098,7.232,4.356,9.577c4.104,2.259,8.535,3.917,12.686,6.099
		c11.432,6.011,14.256,13.572,9.599,25.414c-0.779,1.981-1.679,3.955-2.812,5.749c-3.789,6.001-5.66,12.355-4.502,19.515
		c0.26,1.611-0.158,3.384-0.514,5.029c-0.56,2.583-4.241,4.113-6.076,2.337c-6.972-6.747-15.004-12.599-15.652-23.843
		c-0.557-9.656-7.315-17.471-18.369-17.893c-6.614-0.253-9.967-3.504-11.468-9.735c-2.392-9.923-8.505-17.629-15.835-24.364
		c-8.14-7.479-12.978-16.731-16.094-27.19c-1.919-6.44-1.652-12.604,0.386-18.866c5.243-16.112,13.676-30.349,25.415-42.535
		c12.78-13.267,27.041-24.842,41.883-35.712c2.757-2.019,5.558-3.98,8.392-5.89c13.034-8.786,23.246-19.932,29.848-34.378
		c2.473-5.412,5.704-10.52,8.966-15.522c8.205-12.58,20.215-19.278,34.8-21.671C995.665,69.741,995.685,69.86,1004.309,74.988z"/>
	<path opacity="0.5" fill="#F6BE72" d="M856.664,564.582c0.153,7.845-2.494,20.721-8.707,32.748
		c-5.906,11.433-10.865,23.254-14.121,35.696c-2.713,10.364-8.766,17.33-18.856,20.928c-8.162,2.911-15.334,7.545-21.701,13.365
		c-20.625,18.853-43.994,21.26-69.139,11.158c-13.471-5.412-26.701-11.461-39.853-17.621c-10.354-4.849-18.122-12.71-23.756-22.66
		c-6.767-11.951-11.923-24.601-16.297-37.589c-0.685-2.034-1.143-4.088-0.498-6.255c0.526-1.765,1.916-1.629,3.027-1.158
		c3.34,1.417,5.218,4.488,6.866,7.384c11.669,20.495,31.001,31.436,51.362,40.726c12.585,5.742,26.363,7.207,40.128,6.819
		c14.138-0.398,25.291-7.557,34.345-17.762c5.167-5.825,10.175-11.318,17.586-14.408c4.455-1.857,7.107-6.054,9.362-10.249
		c2.858-5.318,6.376-10.115,10.755-14.282c0.926-0.881,1.737-1.885,2.589-2.843c13.17-14.814,17.115-31.027,8.274-49.654
		c-4.208-8.866-7.503-18.164-11.233-27.258c-0.648-1.581-1.826-3.061-2.042-4.683c-1.986-14.979-12.34-24.933-21.453-35.52
		c-4.156-4.828-9.299-8.807-13.999-13.167c-6.894-6.395-13.847-12.728-20.633-19.236c-1.129-1.083-2.551-3.63-2.095-4.283
		c1.712-2.45,3.783-0.355,5.348,0.647c21.269,13.612,42.181,27.68,59.684,46.188c8.262,8.736,15.771,17.998,21.818,28.413
		C852.334,525.373,856.774,541.713,856.664,564.582z"/>
	<path opacity="0.5" fill="#F6BE72" d="M692.845,879.299c-3.34,0.219-6.638-0.671-9.799-2.034c-3.132-1.35-6.3-2.68-9.256-4.363
		c-7.777-4.428-15.456-4.197-23.21-0.049c-2.26,1.209-4.555,2.359-6.87,3.459c-8.445,4.012-15.73,2.059-22.184-4.315
		c-4.945-4.884-8.693-10.664-11.402-16.933c-7.481-17.31-12.604-35.399-16.753-53.768c-0.276-1.222-0.308-2.563-0.124-3.8
		c0.109-0.732,0.756-1.492,1.354-2.021c1.164-1.029,2.541-0.558,3.476,0.244c1.602,1.375,3.195,2.874,4.379,4.604
		c4.099,5.99,8.097,12.054,11.985,18.184c2.98,4.698,5.87,9.428,9.941,13.314c7.758,7.402,16.659,10.153,27.071,6.73
		c3.244-1.066,6.511-2.141,9.604-3.567c5.498-2.533,10.724-2.579,15.774,0.961c5.259,3.686,11.066,4.018,17.188,3.141
		c5.524-0.791,11.187-1.133,16.6,0.173c9.993,2.41,19.498,0.484,29.03-2.172c3.292-0.918,6.6-1.788,9.922-2.591
		c3.367-0.814,6.766-0.787,10.185-0.217c4.504,0.751,7.963,2.656,9.668,7.275c1.171,3.174,2.557,6.369,4.435,9.159
		c2.778,4.124,7.337,4.578,11.049,1.262c2.534-2.264,4.596-5.049,7.045-7.419c1.959-1.897,5.346-0.733,6.078,1.953
		c0.223,0.817,0.253,1.685,0.418,2.52c1.672,8.47,4.576,9.729,11.9,5.236c3.708-2.274,6.72-5.294,9.275-8.742
		c2.543-3.431,5.087-6.898,7.224-10.585c3.135-5.41,6.966-8.108,13.629-6.305c10.029,2.714,17.437-1.463,22.774-9.98
		c1.345-2.147,2.771-4.257,4.35-6.232c0.406-0.507,1.612-0.725,2.31-0.541c0.596,0.157,1.342,1.038,1.418,1.671
		c0.689,5.776-1.228,10.984-3.944,15.903c-3.136,5.681-7.285,10.539-12.647,14.282c-9.447,6.595-15.633,15.558-19.618,26.286
		c-1.929,5.194-4.267,10.273-6.855,15.175c-1.981,3.754-4.31,7.433-7.066,10.648c-8.419,9.821-15.653,10.996-27.114,4.85
		c-1.504-0.807-2.964-1.709-4.387-2.653c-3.834-2.542-7.743-3.332-12.046-1.061c-1.489,0.785-3.214,1.18-4.874,1.571
		c-4.623,1.089-8.512-0.352-10.951-4.435c-1.521-2.545-2.425-5.452-3.712-8.145c-5.622-11.757-16.08-17.51-29.264-15.904
		c-7.24,0.882-14.189,2.966-21.008,5.585C703.079,877.483,698.298,879.503,692.845,879.299z"/>
	<path fill="#442008" d="M664.71,438.827c1.72,2.798,1.52,5.648,0.35,8.589c-9.337,23.464-15.421,47.995-23.543,71.858
		c-3.868,11.366-6.506,23.021-7.685,34.994c-2.321,23.587,7.012,37.339,29.808,43.978c7.183,2.092,14.311,2.285,21.441-0.072
		c2.835-0.938,5.68-1.885,8.422-3.057c8.558-3.658,19.673-11.492,28.29-19.814c-16.029-10.126-24.724-25.442-30.334-42.904
		c-0.652-2.031-1.214-4.105-1.627-6.197c-2.107-10.663,1.064-19.395,9.701-26.078c7.242-5.604,15.324-9.541,24.421-10.574
		c11.963-1.358,23.922-0.96,35.609,2.423c15.5,4.487,23.512,14.337,25.093,30.341c1.624,16.444-4.271,29.244-18.022,38.432
		c-7.143,4.773-14.841,8.434-22.797,11.615c-1.774,0.709-2.031,3.191-0.476,3.981c13.71,6.961,26.983,14.797,41.323,20.498
		c2.909,1.157,5.681,1.62,8.669,0.384c5.524-2.287,11.177-4.283,16.618-6.75c10.633-4.82,16.366-13.429,17.969-24.788
		c1.46-10.34,0.616-20.602-3.391-30.266c-6.218-14.995-12.764-29.858-19.458-44.648c-3.747-8.278-9.731-15.075-16.091-21.451
		c-8.154-8.174-16.531-16.126-24.754-24.232c-3.912-3.856-7.691-7.847-11.486-11.733c2.393-2.952,3.612-0.659,4.551,0.106
		c12.95,10.545,25.042,22.013,36.396,34.263c8.522,9.194,15.095,19.581,19.924,31.166c3.945,9.462,8.288,18.759,12.508,28.105
		c5.188,11.492,7.965,23.405,6.958,36.114c-0.847,10.695-4.531,20.08-12.834,27.038c-4.09,3.428-6.664,7.545-9.042,12.167
		c-4.559,8.859-10.008,17.109-20.445,20.001c-2.858,0.792-4.155,2.756-5.176,5.175c-4.543,10.759-13.336,16.067-23.991,19.519
		c-44.973,14.57-96.63-10.685-113.344-45.652c-1.486-3.109-2.989-6.088-5.862-8.245c-11.505-8.637-14.088-20.928-13.474-34.273
		c0.473-10.271,2.092-20.421,5.107-30.285c6.245-20.434,12.685-40.809,18.816-61.276c2.962-9.888,7.947-18.856,11.997-28.248
		L664.71,438.827z M809.146,598.213c-4.716-1.364-7.358,0.751-10.287,0.952c-6.69,0.459-13.375,3.275-20.089,0.332
		c-4.308-1.888-6.972,0.151-10.035,3.032c-8.529,8.02-18.535,13.869-29.962,16.493c-16.038,3.683-30.637,1.594-41.218-12.819
		c-0.505-0.688-0.993-1.389-1.511-2.068c-1.449-1.899-3.498-2.726-5.639-1.918c-10.863,4.099-21.747,2.857-32.68,0.49
		c-0.306-0.066-0.709,0.314-1.096,0.5c-0.382,3.374,1.872,5.601,3.78,7.767c25.53,28.979,56.986,40.876,95.261,32.637
		c11.801-2.54,21.715-7.736,26.182-20.005c1.089-2.991,3.202-5.03,6.394-5.688C799.114,615.682,804.027,607.305,809.146,598.213z
		 M768.224,596.065c-10.717-6.128-21.306-12.209-31.41-19.089c-4.399-2.996-8.78-1.21-12.703,2.257
		c-5.726,5.06-11.366,10.383-17.752,14.493c-9.492,6.109-8.846,6.861-0.172,14.372c4.946,4.283,10.882,6.533,17.449,7.034
		C737.843,616.217,756.887,608.214,768.224,596.065z"/>
	<path fill="#442008" d="M942.229,464.53c-0.328-3.802-0.903-7.601-0.938-11.405c-0.114-12.277,3.601-22.736,14.691-29.479
		c1.461-0.889,2.874-1.857,4.306-2.794c9.123-5.973,13.518-13.991,11.019-25.099c-0.561-2.496-0.811-5.07-1.092-7.62
		c-0.497-4.511,0.555-8.675,4.077-11.628c5.228-4.384,7.828-9.759,8.626-16.551c0.801-6.813,4.88-11.689,11.278-14.509
		c2.343-1.033,4.645-2.198,6.846-3.504c6.184-3.669,10.297-8.954,11.781-16.057c0.874-4.182,1.886-8.395,2.14-12.636
		c1.366-22.759,6.27-44.835,12.209-66.757c7.642-28.208,12.227-56.844,11.15-86.197c-0.98-26.704-9.093-50.995-23.151-73.759
		c-11.112-17.993-26.342-16.263-38.589-10.127c-10.168,5.095-18.291,12.609-23.859,22.634c-3.113,5.605-6.177,11.254-8.926,17.043
		c-5.272,11.105-13.003,20.023-23.035,27.036c-6.31,4.411-12.611,8.838-18.877,13.313c-10.113,7.224-19.74,15.03-28.415,23.963
		c-10.817,11.139-19.936,23.488-26.221,37.741c-2.058,4.666-3.668,9.578-4.994,14.509c-3.017,11.219-0.22,21.167,7.444,29.752
		c2.844,3.186,5.86,6.243,8.999,9.14c9.578,8.838,18.258,18.212,19.849,31.967c6.246,1.735,12.144,2.788,17.387,5.814
		c5.668,3.271,9.53,7.354,7.594,14.494c-1.334,4.919,1.422,8.167,4.475,11.272c3.889,3.956,7.901,7.793,11.763,11.775
		c0.438,0.452,0.577,1.699,0.263,2.224c-0.275,0.461-1.646,0.83-2.079,0.547c-4.287-2.803-8.671-5.513-12.654-8.714
		c-5.58-4.484-9.426-9.967-7.751-17.75c0.966-4.486-1.178-7.359-4.959-9.349c-0.378-0.199-0.699-0.54-1.095-0.663
		c-10.858-3.386-17.913-10.577-22.405-20.987c-2.371-5.495-7.104-9.573-11.38-13.787c-3.96-3.902-8.012-7.727-11.754-11.831
		c-9.746-10.687-12.256-23.077-8.52-36.976c1.679-6.245,4.107-12.152,7.019-17.871c9.061-17.794,21.708-32.721,36.776-45.698
		c9.421-8.113,19.437-15.459,29.875-22.153c14.101-9.043,24.952-20.667,31.368-36.273c1.135-2.761,2.61-5.389,4.032-8.022
		c9.208-17.053,22.616-28.753,41.982-32.824c1.607-0.338,3.313-0.515,4.299-2.762c-13.855-9.721-28.672-9.204-43.915-4.159
		c-7.815,2.586-14.598,7.076-21.034,12.094c-8.128,6.336-15.488,13.513-22.113,21.379c-22.873,27.16-45.668,54.384-68.412,81.652
		c-12.394,14.858-22.722,31.023-30.564,48.772c-2.587,5.854-5.649,11.524-8.855,17.069c-1.904,3.293-4.407,6.269-6.873,9.191
		c-0.719,0.852-2.648,1.757-3.312,1.382c-1.974-1.118-0.93-2.879-0.004-4.28c6.155-9.315,10.842-19.404,15.515-29.49
		c6.508-14.045,14.575-27.112,24.196-39.221c5.056-6.363,10.14-12.708,15.346-18.949c17.537-21.026,35.055-42.069,52.755-62.958
		c6.077-7.172,12.539-14.033,19.065-20.804c5.355-5.556,11.436-10.321,17.937-14.493c25.635-16.453,57.554-16.764,80.959,13.083
		c11.75,14.983,19.945,31.827,25.056,50.176c6.783,24.352,6.208,49.069,3.724,73.882c-2.054,20.511-7.187,40.401-12.517,60.221
		c-4.795,17.828-7.799,35.918-9.342,54.284c-0.215,2.556-0.502,5.108-0.824,7.653c-1.684,13.3-7.943,23.387-20.644,28.699
		c-6.485,2.712-10.521,7.172-11.364,14.237c-0.69,5.788-3.092,10.708-7.562,14.408c-4.17,3.451-4.871,7.742-4.021,12.71
		c0.432,2.525,0.401,5.129,0.84,7.652c1.913,10.977-2.805,19.086-11.009,25.673c-1.995,1.602-4.163,3.003-6.33,4.373
		c-6.973,4.41-10.926,10.611-11.677,18.894c-0.462,5.106-1.114,10.199-1.834,15.276c-0.279,1.966-1.576,2.807-3.596,2.023
		L942.229,464.53z"/>
	<path fill="#442008" d="M506.215,470.207c-3.864-3.204-5.161-7.918-6.373-12.338c-2.366-8.627-6.844-13.422-16.432-12.165
		c-2.888,0.379-6.013-0.064-8.883-0.746c-6.426-1.527-8.493-7.661-4.17-12.826c2.425-2.896,5.632-5.157,8.576-7.596
		c4.467-3.701,4.578-4.112,2.487-9.731c-1.355-3.641-2.858-7.143-6.139-9.53c-4.709-3.427-7.52-8.152-8.857-13.701
		c-1.541-6.396-5.907-10.187-11.359-13.092c-5.274-2.81-10.569-5.58-15.859-8.36c-7.653-4.022-12.522-10.212-14.214-18.706
		c-3.454-17.329-10.5-33.322-17.884-49.225c-13.888-29.914-24.628-60.938-31.988-93.092c-4.778-20.875-7.955-41.946-6.685-63.487
		c0.708-11.998,2.773-23.724,6.203-35.235c11.458-38.445,46.816-44.137,70.92-38.355c2.073,0.497,4.171,1.028,6.127,1.853
		c35.335,14.892,68.532,32.944,93.266,63.43c4.587,5.654,9.589,10.901,15.208,15.55c7.912,6.546,15.637,13.27,21.505,21.838
		c2.25,3.285,5.352,5.435,9.191,6.567c12.009,3.543,20.683,11.606,28.394,20.987c9.292,11.303,16.258,24.004,22.473,37.163
		l0.309-0.188c-1.785,0.333-3.339,0.11-4.406-1.607c-2.48-3.99-5.05-7.926-7.491-11.94c-5.341-8.782-11.096-17.264-18.019-24.891
		c-6.115-6.736-13.006-12.367-21.993-14.885c-5.543-1.553-9.977-4.574-13.306-9.387c-5.157-7.452-12.117-13.175-18.804-19.175
		c-5.078-4.556-10.369-9.065-14.557-14.389c-15.608-19.839-35.039-34.894-56.87-47.167c-11.926-6.704-23.859-13.37-36.93-17.649
		c-14.641-4.793-16.997-3.965-24.974,9.114c-9.705,15.913-12.357,33.606-11.836,51.76c0.548,19.113,5.839,37.098,15.775,53.533
		c3.976,6.576,8.448,12.851,12.646,19.294c3.03,4.651,6.23,9.217,8.905,14.069c3.824,6.934,5.277,14.403,3.543,22.293
		c-0.917,4.17-1.931,8.319-2.808,12.498c-3.43,16.351-0.974,31.445,9.655,44.774c1.066,1.337,2.007,2.778,3.133,4.06
		c10.12,11.52,16.622,24.748,19.095,39.933c1.608,9.872,5.62,18.819,11.12,27.078c6.538,9.818,10.795,20.276,10.921,32.297
		c0.044,4.174,1.179,8.337,1.844,12.692c-3.244-0.006-3.856-2.207-4.344-3.92c-1.165-4.089-2.459-8.256-2.742-12.456
		c-0.535-7.936-2.96-15.124-7.425-21.544c-8.458-12.162-13.553-25.55-16.116-40.1c-1.501-8.522-5.327-16.196-10.637-23.079
		c-3.655-4.738-7.414-9.403-10.904-14.26c-9.189-12.79-12.62-26.927-9.445-42.484c0.682-3.344,1.359-6.71,2.38-9.959
		c3.757-11.958,1.449-22.734-5.817-32.74c-4.017-5.532-7.839-11.209-11.644-16.891c-8.875-13.252-15.687-27.434-19.103-43.108
		c-4.177-19.167-3.629-38.198,1.766-57.068c2.628-9.192,7.41-17.222,13.362-24.624c0.456-0.567,0.687-1.567,0.569-2.292
		c-0.252-1.549-1.675-1.77-2.875-1.652c-17.64,1.723-32.027,8.658-40.183,25.389c-6.683,13.707-9,28.446-9.935,43.452
		c-1.559,25.047,2.942,49.393,9.034,73.502c7.347,29.081,17.531,57.174,30.228,84.335c7.074,15.133,13.625,30.429,16.87,46.909
		c1.616,8.205,6.244,13.803,13.713,17.357c4.625,2.201,9.116,4.686,13.655,7.067c7.069,3.71,12.621,8.654,14.547,16.888
		c0.993,4.242,3.156,8.006,6.833,10.549c5.74,3.971,7.271,10.362,9.58,16.281c1.619,4.148,0.087,7.472-3.352,10.083
		c-3.052,2.318-6.15,4.594-9.018,7.127c-0.787,0.695-1.332,2.388-1.056,3.357c0.277,0.974,1.643,2.168,2.66,2.303
		c3.374,0.448,6.806,0.631,10.214,0.61c7.788-0.047,12.79,3.339,15.445,10.862c2.162,6.127,3.872,12.187,3.173,18.682
		C506.037,470.058,506.215,470.207,506.215,470.207z"/>
	<path fill="#442008" d="M974.984,962.545c-8.688,3.025-14.563,5.436-20.642,7.108c-10.752,2.957-21.852,3.93-32.938,4.709
		c-16.206,1.139-32.4,2.38-48.441,5.04c-6.317,1.048-12.622,2.233-18.867,3.643c-23.269,5.25-42.819,16.879-58.413,34.914
		c-6.705,7.754-13.07,15.816-19.327,23.94c-9.655,12.536-19.239,25.12-29.897,36.839c-6.92,7.609-14.246,14.775-22.703,20.697
		c-13.221,9.257-27.682,13.066-43.721,9.937c-1.678-0.328-3.36-0.638-5.042-0.941c-7.056-1.27-13.502-0.377-19.215,4.52
		c-6.599,5.656-14.256,7.53-22.759,5.166c-2.099-0.584-3.883-1.608-4.443-4.39c1.677-0.173,3.361-0.625,4.984-0.465
		c7.208,0.711,13.508-1.317,19.066-5.865c6.376-5.218,13.544-6.903,21.626-5.14c2.909,0.634,5.952,0.624,8.908,1.077
		c15.34,2.351,28.681-2.109,40.651-11.616c6.724-5.34,13.01-11.155,18.52-17.698c9.084-10.788,17.899-21.804,26.732-32.801
		c5.621-6.999,11.029-14.169,16.605-21.204c19.737-24.901,45.45-39.675,76.647-45.133c14.743-2.579,29.54-4.645,44.495-5.612
		c10.662-0.69,21.309-1.688,31.938-2.793c15.157-1.576,29.187-6.294,41.48-15.581c1.36-1.027,2.805-1.944,4.235-2.873
		c0.306-0.199,0.721-0.228,1.917-0.581c-0.06,4.674-3.498,6.728-6.029,9.197c-2.212,2.158-4.008,4.117-3.329,7.695
		c0.654,3.451-1.12,6.668-2.339,9.854c-6.286,16.423-7.033,33.308-4.329,50.507c1.463,9.307,2.255,18.674,2.023,28.108
		c-0.214,8.689-2.002,17.032-6.409,24.564c-7.279,12.44-17.776,20.578-32.268,22.96c-1.245,0.205-2.575,0.139-3.826-0.054
		c-0.598-0.092-1.106-0.774-1.687-1.213c2.039-2.627,5.215-2.666,7.897-3.73c19.853-7.881,30.346-22.942,30.516-44.451
		c0.047-5.956-0.72-11.93-1.302-17.876c-0.834-8.506-2.184-16.975-2.703-25.497C961.656,992.163,965.607,977.893,974.984,962.545z"
		/>
	<path fill="#442008" d="M544.339,1017.348c-2.512-7.598-7.32-13.243-13.972-17.711c-9.038-6.071-15.66-14.483-21.068-23.833
		c-5.136-8.879-10.095-17.86-15.129-26.798c-2.087-3.704-2.171-3.765-6.962-0.99c-2.546,1.475-4.899,1.541-7.014-0.418
		c-1.549-1.436-2.902-3.138-4.096-4.89c-2.408-3.531-4.766-7.107-6.936-10.787c-7.136-12.103-17.095-21.244-29.196-28.184
		c-7.045-4.04-14.117-8.033-21.129-12.128c-24.501-14.309-37.28-36.993-44.522-63.34c-2.284-8.311-2.151-17.059,1.039-25.281
		c4.015-10.349,4.216-20.917,2.317-31.573c-1.926-10.809-0.8-21.366,2.143-31.716c4.841-17.028,12.812-32.573,23.538-46.672
		c0.992-1.304,2.345-2.333,3.536-3.496c2.458,2.09,0.291,3.379-0.319,4.54c-2.78,5.295-5.894,10.414-8.737,15.678
		c-5.087,9.417-9.591,19.101-12.647,29.394c-3.075,10.358-4.545,20.79-2.521,31.631c2.142,11.473,2.354,22.952-1.785,34.17
		c-3.437,9.315-2.189,18.594,0.835,27.68c8.103,24.349,21.566,44.529,44.861,56.974c5.276,2.818,10.389,5.939,15.587,8.904
		c13.645,7.783,24.83,18.074,32.735,31.789c1.899,3.293,4.166,6.374,6.032,9.202c3.363,0.825,2.695-1.638,3.346-2.854
		c2.198-4.109,5.146-4.767,7.598-1.398c2.507,3.444,4.73,7.114,6.858,10.812c5.33,9.262,10.447,18.646,15.817,27.884
		c4.993,8.589,11.165,16.255,19.476,21.85c6.949,4.678,11.978,10.886,15.857,18.157c8.449,15.835,16.885,31.678,25.297,47.534
		c3.205,6.04,6.252,12.165,9.503,18.179c5.424,10.032,13.013,17.932,23.209,23.236c1.481,0.771,2.796,1.871,4.145,2.878
		c0.26,0.194,0.315,0.664,0.772,1.714c-11.956-0.804-20.093-7.177-26.775-15.837c-6.036-7.823-10.452-16.643-14.695-25.519
		c-7.009-14.662-14.426-29.105-22.614-43.147c-1.266-2.171-1.948-4.794-4.569-5.919L544.339,1017.348z"/>
	<path fill="#442008" d="M435.348,566.77c-0.202,2.355-1.86,3.751-3.454,5.16c-13.251,11.719-28.773,18.214-46.319,19.877
		c-4.247,0.402-8.569,0.661-12.811,0.36c-20.692-1.464-40.905,1.845-61.079,5.731c-7.551,1.455-15.121,2.813-22.663,4.314
		c-4.187,0.833-8.389,1.677-12.488,2.852c-13.567,3.888-23.35,12.135-28.632,25.407c-1.58,3.97-3.226,7.916-4.718,11.919
		c-2.693,7.224-7.276,12.82-14.811,14.869c-10.778,2.931-14.715,10.783-16.321,20.691c-0.889,5.485-1.884,10.959-2.574,16.471
		c-1.56,12.468-5.585,24.103-11.459,35.149c-1.807,3.397-3.591,6.806-5.453,10.172c-6.038,10.914-10.499,22.396-13.25,34.598
		c-0.802,3.556-0.266,7.77-3.607,10.55c-2.915,0.098-2.119-2.26-2.103-3.515c0.133-10.369,2.023-20.439,6.358-29.887
		c3.383-7.373,6.983-14.67,10.915-21.763c7.155-12.907,11.352-26.667,13.166-41.262c0.684-5.505,1.673-10.989,2.83-16.416
		c2.001-9.385,6.813-16.67,16.479-19.515c8.253-2.429,12.636-8.177,15.145-15.961c1.046-3.246,2.47-6.372,3.775-9.531
		c5.751-13.93,15.917-23.108,30.285-27.41c6.53-1.956,13.235-3.401,19.932-4.714c12.576-2.466,25.194-4.726,37.814-6.961
		c10.547-1.868,21.176-3.182,31.901-2.333c24.755,1.959,47.579-3.147,67.94-17.86c1.302-0.94,3.096-1.199,4.661-1.774
		C434.81,565.99,435.348,566.77,435.348,566.77z"/>
	<path fill="#442008" d="M592.624,792.642c7.13,0.085,10.547,4.518,13.942,8.793c5.315,6.691,10.268,13.67,15.551,20.389
		c2.897,3.685,5.878,7.387,9.311,10.549c6.551,6.037,14.533,8.479,22.336,3.535c11.247-7.127,21.279-6.953,31.748,1.265
		c4.305,3.38,9.898,2.787,14.826,1.037c7.883-2.799,15.877-3.06,24.033-2.315c8.217,0.75,16.205-0.199,23.937-3.165
		c1.988-0.763,4.001-1.505,6.06-2.033c6.5-1.665,11.825,0.034,15.563,5.806c2.089,3.226,3.966,6.596,6.164,9.744
		c3.681,5.271,6.576,5.425,11.318,0.665c2.402-2.411,4.514-5.112,6.928-7.51c1.581-1.57,4.662-0.622,5.12,1.495
		c0.719,3.325,1.03,6.754,1.958,10.013c1.071,3.759,4.921,5.081,8.156,2.742c2.74-1.981,5.288-4.325,7.564-6.831
		c4.041-4.45,6.969-9.683,9.903-14.917c4.206-7.5,4.739-7.976,13.17-5.189c9.237,3.053,15.781-0.61,21.464-7.139
		c2.472-2.839,4.401-6.147,6.636-9.2c0.133-0.181,0.845-0.09,1.189,0.077c0.359,0.174,0.83,0.576,0.856,0.908
		c0.236,3.131-1.18,5.812-2.641,8.386c-6.225,10.965-15.425,15.158-27.959,12.882c-6.011-1.092-6.015-1.094-8.932,3.696
		c-1.555,2.553-2.887,5.274-4.687,7.639c-2.839,3.731-5.67,7.564-9.065,10.758c-9.533,8.967-14.767,7.935-21.731-3.799
		c-0.205-0.345-0.594-0.581-1.581-1.515c-2.356,1.664-4.859,3.704-7.614,5.314c-4.277,2.499-8.293,2.074-11.529-1.738
		c-3.016-3.553-5.333-7.697-7.982-11.564c-4.085-5.962-6.586-7.441-12.814-4.763c-11.42,4.911-23.114,5.654-35.193,4.401
		c-5.196-0.539-10.254,0.334-15.073,2.278c-8.693,3.507-16.708,2.355-24.225-3.114c-1.379-1.003-2.882-1.837-4.329-2.747
		c-3.578-2.248-7.214-2.302-10.933-0.339c-2.644,1.396-5.266,2.847-7.982,4.087c-9.934,4.534-19.128,3.161-27.512-3.734
		c-1.643-1.352-3.276-2.802-4.579-4.468C613.493,819.596,603.071,806.11,592.624,792.642z"/>
	<path fill="#442008" d="M948.288,474.189c2.425-0.731,4.048,0.791,5.667,2.121c12.929,10.615,24.614,22.464,34.956,35.614
		c1.577,2.005,2.935,4.209,4.188,6.436c2.204,3.918,3.316,8.344,0.71,12.175c-3.066,4.508-1.25,7.984,0.806,11.848
		c2.607,4.899,5.293,9.78,7.491,14.866c4.41,10.207,4.422,20.016-4.031,28.416c-3.49,3.468-3.722,7.43-2.731,11.826
		c1.034,4.583,2.093,9.163,2.975,13.775c3.058,15.982,2.066,31.517-5.848,46.068c-2.4,4.413-3.148,8.751-1.724,13.527
		c0.365,1.224,0.591,2.495,0.817,3.755c1.748,9.745,0.26,18.768-6.328,26.474c-6.611,7.733-4.765,8.1-0.165,15.463
		c3.844,6.153,7.977,12.196,11.107,18.708c5.385,11.207,8.849,23.015,8.491,35.862c-3.526-0.955-3.669-3.784-4.184-6.018
		c-3.994-17.312-10.928-33.226-21.865-47.318c-1.043-1.344-1.871-2.858-2.758-4.318c-2.233-3.675-2.546-7.651,0.536-10.664
		c9.962-9.739,11.92-21.085,8.276-34.124c-1.15-4.112-0.524-8.447,1.689-12.419c8.33-14.95,9.165-30.865,5.839-47.27
		c-0.679-3.348-1.472-6.672-2.158-10.019c-1.354-6.604-0.853-12.542,4.557-17.621c6.005-5.638,6.567-12.759,3.46-20.075
		c-2.499-5.883-5.362-11.621-8.278-17.313c-2.618-5.11-4.896-9.939-0.566-15.427c2.044-2.592,1.124-5.865-0.547-8.451
		c-2.543-3.936-5.109-7.948-8.257-11.385c-8.367-9.134-17.082-17.946-25.586-26.956c-2.282-2.418-5.65-3.993-6.302-7.75
		C948.528,473.991,948.288,474.189,948.288,474.189z"/>
	<path fill="#442008" d="M464.323,963.155c-9.735,2.511-17.156,4.287-24.499,6.345c-24.309,6.812-42.265,21.53-54.327,43.666
		c-8.203,15.054-15.127,30.656-19.51,47.222c-3.599,13.605-6.39,27.426-9.483,41.164c-1.133,5.035-1.369,10.152-0.804,15.284
		c0.611,5.543,3.223,9.438,8.766,11.358c6.849,2.373,13.569,5.117,20.342,7.706c1.966,0.751,4.174,1.164,5.052,3.741
		c-0.641,2.134-2.599,1.298-3.83,1.016c-7.471-1.715-14.922-3.391-22.044-6.49c-9.787-4.26-14.855-11.148-14.003-21.953
		c0.401-5.098,0.631-10.252,1.595-15.254c2.424-12.569,4.414-25.306,8.042-37.542c7.057-23.806,16.369-46.728,32.038-66.444
		c14.274-17.961,33.532-27.274,55.667-31.199C452.285,960.894,457.461,960.066,464.323,963.155z"/>
	<path fill="#442008" d="M641.72,239.409c1.144,7.646-0.566,10.228-6.743,9.833c-2.543-0.162-5.043-0.902-7.585-1.184
		c-7.114-0.791-8.672,0.121-11.733,6.97c-1.218,2.725-2.052,5.62-3.264,8.347c-3.264,7.355-5.258,8.403-12.79,6.93
		c-0.827-0.162-1.586-0.675-2.413-0.842c-4.933-0.994-6.932,0.13-8.372,5.194c-0.929,3.269-1.459,6.661-2.013,10.023
		c-0.346,2.101-0.284,4.267-0.609,6.373c-0.904,5.873-4.218,7.32-8.763,3.854c-1.012-0.772-1.791-1.846-2.792-2.636
		c-5.707-4.511-8.835-3.656-10.83,3.558c-1.47,5.319-2.231,10.853-3.033,16.331c-0.988,6.757-1.522,13.582-2.567,20.328
		c-0.975,6.291-3.895,11.732-10.508,13.171c-8.287,1.803-10.838,7.49-11.575,14.737c-1.434,14.092-7.607,26.08-16.025,37.131
		c-1.03,1.352-1.944,2.791-3.062,4.406c-2.627-3.911-0.2-6.004,0.861-8.005c6.235-11.762,11.633-23.719,12.989-37.22
		c0.789-7.851,4.591-13.732,12.929-15.542c5.916-1.284,8.416-5.501,9.159-10.963c1.036-7.615,1.882-15.259,2.663-22.905
		c0.568-5.568,1.721-10.999,3.931-16.111c3.276-7.575,7.397-9.028,15.33-5.754c1.531,0.632,2.982,1.46,5.201,2.56
		c1.044-5.036,1.711-9.536,2.931-13.881c2.711-9.653,5.938-11.591,15.839-10.066c6.437,0.992,6.445,0.995,8.685-4.093
		c1.718-3.903,3.26-7.891,5.157-11.705c2.353-4.731,6.471-6.64,11.624-6.211c2.974,0.248,5.947,0.688,8.874,1.272
		c3.953,0.788,6.504-1.166,8.757-4.055C642.029,239.221,641.72,239.409,641.72,239.409z"/>
	<path fill="#442008" d="M197.14,980.717c-1.208,5.064-1.347,10.193-0.415,15.28c1.391,7.59,5.21,11.227,12.855,12.023
		c6.832,0.712,13.633,0.425,20.342-1.469c7.061-1.993,7.096-1.866,6.064-10.541c3.695,2.47,6.982,4.974,10.547,6.985
		c7.169,4.043,14.655,4.626,21.996,0.545c9.62-5.348,12.935-15.583,8.637-26.581c-4.019-10.285-11.014-18.223-20.204-24.232
		c-6.868-4.491-14.37-7.528-22.415-9.14c-6.197-1.242-12.424-2.335-18.921-3.547c0.711-0.895,1.084-1.831,1.542-1.874
		c19.334-1.831,36.516,3.434,50.6,16.847c10.185,9.7,17.276,21.161,15.818,36.256c-0.427,4.418,0.527,5.194,4.721,6.037
		c9.63,1.934,19.279,3.769,28.902,5.737c3.273,0.669,6.672,1.101,9.663,3.361c-1.136,2.658-3.451,1.665-5.119,1.578
		c-11.596-0.606-22.849-3.149-33.777-6.931c-4.555-1.577-7.755-1.263-11.296,2.488c-7.788,8.251-17.482,10.5-28.118,6.313
		c-3.568-1.405-6.416-0.823-9.786,0.224c-5.695,1.77-11.546,3.093-17.396,4.292c-5.534,1.134-11.029,0.415-16.503-0.945
		c-8.098-2.011-12.31-7.388-13.401-15.298c-0.765-5.542-0.719-11.119,2.453-16.146c0.792-1.254,1.876-1.434,3.177-1.042
		L197.14,980.717z"/>
	<path fill="#442008" d="M501.625,471.25c0.72,3.031-1.4,4.805-3.175,6.518c-5.224,5.04-10.608,9.914-15.929,14.854
		c-3.129,2.905-6.318,5.749-9.368,8.735c-5.823,5.698-9.049,12.416-7.431,20.76c1.794,9.245-1.615,16.659-7.617,23.389
		c-3.404,3.817-6.572,7.867-9.594,11.998c-3.909,5.344-4.295,11.005-0.741,16.768c0.896,1.454,1.704,2.961,2.587,4.423
		c4.179,6.915,3.814,13.849-0.176,20.627c-2.162,3.671-4.546,7.242-7.132,10.627c-7.833,10.258-14.456,21.142-18.291,33.569
		c-0.618,2.003-1.103,4.214-4.544,4.447c-1.16-8.84,1.636-16.79,5.681-24.215c3.253-5.972,7.46-11.424,11.259-17.097
		c2.611-3.899,5.452-7.663,7.814-11.706c2.277-3.898,2.971-8.442,0.137-12.14c-3.856-5.033-3.538-12.534-9.758-16.038
		c0.001,0.001-0.537-0.779-0.538-0.78c6.869-9.133,13.719-18.28,20.616-27.391c3.502-4.626,5.315-9.551,3.931-15.487
		c-1.997-8.568,0.673-16.142,6.254-22.506c9.864-11.248,21.411-20.641,33.762-29.039c0.575-0.391,1.63-0.076,2.461-0.089
		L501.625,471.25z"/>
	<path fill="#442008" d="M375.337,861.163c1.328,5.013-1.759,9.085-3.068,13.472c-4.709,15.779-7.101,31.707-3.974,48.073
		c1.04,5.443,2.177,10.951,4.084,16.13c5.152,13.999,1.325,25.081-10.077,34.033c-7.891,6.195-13.556,14.133-18.277,22.874
		c-4.304,7.97-4.962,16.127-2.318,24.784c1.894,6.201,4.783,11.864,7.973,17.439c2.546,4.45,5.02,8.944,7.418,13.475
		c0.788,1.49,1.339,3.16-0.059,4.71c-0.774-0.217-1.819-0.187-2.282-0.69c-10.333-11.217-17.674-23.965-20.503-39.178
		c-1.394-7.491-0.266-14.443,2.901-21.183c4.406-9.374,10.049-17.875,17.927-24.743c1.611-1.405,3.252-2.775,4.875-4.166
		c7.59-6.51,10.149-14.19,6.841-24.061c-2.295-6.851-3.756-14.053-4.879-21.21c-2.873-18.305,0.519-35.714,8.488-52.317
		c1.294-2.696,2.693-5.337,5.224-7.139L375.337,861.163z"/>
	<path fill="#442008" d="M544.153,1017.063c-0.569,1.07-1.599,2.123-1.638,3.212c-0.708,19.707-4.264,38.982-8.886,58.073
		c-2.425,10.015-3.637,20.009-3.342,30.377c0.673,23.694-18.289,41.881-42.226,41.26c-7.817-0.203-13.982-3.398-18.493-9.732
		c-3.947-5.541-6.687-11.575-7.572-18.352c2.734-0.824,3.227,0.961,4.093,2.306c2.764,4.294,5.256,8.815,8.444,12.772
		c4.64,5.76,10.957,8.027,18.293,6.574c7.622-1.51,14.689-4.391,20.814-9.323c7.079-5.701,10.763-13.07,10.928-22.166
		c0.031-1.705,0.011-3.418-0.119-5.117c-0.753-9.899,0.647-19.513,3.055-29.126c4.874-19.453,8.757-39.109,10.675-59.11
		c0.359-3.743,0.757-3.81,6.126-1.401C544.339,1017.348,544.152,1017.062,544.153,1017.063z"/>
	<path fill="#442008" d="M998.739,787.223c2.929,0.098,3.145,1.956,3.415,3.582c0.871,5.25-0.467,10.257-2.34,15.034
		c-2.713,6.922-1.866,13.221,1.692,19.634c3.103,5.592,5.749,11.462,8.264,17.351c4.796,11.227,4.571,21.727-5.547,30.221
		c-5.244,4.403-6.297,9.748-4.744,16.142c1.613,6.639,2.925,13.353,4.28,20.052c1.641,8.114,1.411,16.139-1.334,24.029
		c-1.574,4.526-3.967,8.516-7.548,11.718c-1.192,1.065-2.583,2.596-4.295,1.164c-1.118-0.936-0.351-2.273,0.311-3.369
		c0.442-0.731,0.783-1.524,1.241-2.243c6.921-10.857,6.932-22.641,4.532-34.689c-1.085-5.445-2.516-10.82-3.76-16.234
		c-1.764-7.678-0.328-14.411,5.855-19.754c1.291-1.116,2.502-2.333,3.685-3.566c4.198-4.377,5.669-9.472,3.735-15.319
		c-1.205-3.644-2.437-7.294-3.948-10.817c-1.683-3.923-3.414-7.875-5.623-11.512c-5.095-8.388-5.575-16.952-1.439-25.707
		C997.539,797.925,997.534,792.369,998.739,787.223z"/>
	<path fill="#442008" d="M159.478,953.858c-2.534-1.63-2.434-3.883-2.632-5.956c-0.976-10.243-1.082-20.505-0.306-30.762
		c2.421-31.997,5.859-63.874,11.596-95.469c0.917-5.047,1.876-10.087,2.91-15.111c0.428-2.084,1.024-4.168,3.958-5.475
		c-0.248,17.401-3.667,34.066-5.451,50.884c-1.804,17.008-3.712,34.005-5.638,51C162.007,919.813,163.541,936.987,159.478,953.858z"
		/>
	<path fill="#442008" d="M857.629,1132.059c-2.428-1.312-3.929,0.408-5.557,1.703c-12.107,9.625-25.347,11.622-39.522,5.396
		c-3.472-1.525-6.354-1.208-9.756-0.143c-29.484,9.235-54.599-12.227-51.196-43.816c3.205,2.268,3.044,5.95,3.884,9.048
		c1.575,5.808,3.595,11.395,6.82,16.47c8.329,13.109,23.435,19.649,38.791,13.155c4.651-1.967,9.142-4.314,13.684-6.476
		c1.816,1.047,0.504,2.142,0.087,3.206c-1.451,3.701-1.057,4.994,1.74,5.636c17.926,4.115,32.104-2.163,40.658-18.476
		c2.901-5.532,4.891-11.542,7.799-18.539c2.946,7.643,0.502,13.377-1.895,19.019c-1.987,4.675-5.307,8.791-5.812,14.08
		L857.629,1132.059z"/>
	<path fill="#442008" d="M857.354,1132.322c2.424-1.597,4.881-0.843,7.373-0.166c14.971,4.068,28.1,0.707,38.329-10.933
		c10.821-12.314,14.963-26.582,9.713-42.769c-3.062-9.441-9.793-15.849-17.716-21.17c-4.556-3.06-9.355-5.759-14.187-8.707
		c2.171-2.574,4.039-1.201,5.741-0.52c3.555,1.422,7.18,2.766,10.523,4.604c18.081,9.938,26.405,26.872,22.805,47.208
		c-2.317,13.088-8.796,23.971-19.652,31.884c-13.497,9.838-29.339,9.826-42.601,0.262
		C857.629,1132.059,857.354,1132.322,857.354,1132.322z"/>
	<path fill="#442008" d="M779.698,252.976c-6.137,1.356-11.826,0.085-17.469-1.196c-10.409-2.363-20.776-4.906-31.177-7.302
		c-10.572-2.436-21.199-2.315-31.822-0.356c-9.241,1.704-18.468,3.483-27.694,5.265c-4.642,0.897-9.31,1.339-14.017,0.799
		c-0.523-0.06-1.391-1.034-1.322-1.455c0.118-0.715,0.738-1.495,1.366-1.938c0.661-0.467,1.56-0.661,2.385-0.821
		c10.479-2.037,21.019-3.799,31.434-6.118c16.597-3.696,33.07-3.455,49.525,0.608c10.364,2.559,20.729,5.118,31.05,7.842
		C774.674,249.02,777.945,249.057,779.698,252.976z"/>
	<path fill="#442008" d="M421.205,1100.114c-1.402,3.475-2.841,6.936-4.198,10.429c-1.702,4.382-2.851,8.903-3.151,13.615
		c-0.591,9.291,2.89,14.495,11.875,16.916c5.77,1.555,11.727,1.873,17.725,1.441c3.604-0.26,7.267-1.364,11.089-0.1
		c-0.7,1.111-0.975,2.143-1.608,2.461c-10.536,5.285-21.345,5.103-32.085,0.907c-10.314-4.029-14.859-12.451-12.72-23.462
		C409.841,1113.528,412.43,1105.032,421.205,1100.114z"/>
	<path fill="#442008" d="M172.985,956.834c-1.923,3.176-3.853,6.349-5.768,9.53c-2.436,4.044-4.367,8.299-5.357,12.941
		c-1.933,9.064,2.068,16.992,10.426,21.083c4.198,2.055,8.882,2.129,13.328,3.157c-0.667,2.535-2.501,2.971-4.092,3.157
		c-15.155,1.766-27.564-11.385-24.943-26.327C158.201,971.121,162.905,963.48,172.985,956.834z"/>
	<path fill="#442008" d="M796.953,1051.139c12.036-10.703,41.027-14.87,60.704-8.858c-3.345,3.588-7.559,1.359-11.258,1.873
		c-4.22,0.586-8.507,0.667-12.753,1.094c-3.823,0.384-7.651,0.806-11.437,1.45c-4.204,0.716-8.363,1.695-12.54,2.573
		C805.572,1050.134,801.621,1052.119,796.953,1051.139z"/>
	<path fill="#442008" d="M947.529,469.731c0.255,1.484,0.51,2.967,0.762,4.454c-0.003,0.003,0.237-0.194,0.234-0.191
		c-2.658-1.069-0.937-2.938-0.856-4.475C947.638,469.559,947.529,469.731,947.529,469.731z"/>
	<path fill="#442008" d="M942.851,469.914c1.524-0.025,3.048-0.05,4.625-0.129c0.053-0.053,0.162-0.226,0.193-0.265
		c-1.561,1.124-3.182,1.688-4.888,0.168C942.795,469.653,942.851,469.914,942.851,469.914z"/>
	<path fill="#442008" d="M501.833,471.475c0.819-2.347,2.493-2.006,4.324-1.313c0.058,0.045-0.12-0.104-0.053-0.056
		c-1.446,0.414-2.96,0.78-4.476,1.145C501.625,471.25,501.833,471.475,501.833,471.475z"/>
	<path fill="#442008" d="M942.376,464.402c0.162,1.82,0.325,3.64,0.481,5.486c-0.006,0.026-0.062-0.234-0.076-0.2
		c0.819-1.792,1.114-3.563-0.543-5.149C942.229,464.53,942.376,464.402,942.376,464.402z"/>
	<path fill="#442008" d="M664.85,439.031c0.773,0.085,1.547,0.17,2.321,0.254c-1.112,2.175-1.578-0.23-2.414-0.396
		C664.71,438.827,664.85,439.031,664.85,439.031z"/>
	<path fill="#442008" d="M197.107,980.937l-0.563-0.966c0,0,0.554,0.658,0.575,0.702
		C197.14,980.717,197.107,980.937,197.107,980.937z"/>
	<path fill="#442008" d="M375.628,861.464l0.44-0.139c0,0-0.687-0.115-0.71-0.139C375.337,861.163,375.628,861.464,375.628,861.464z
		"/>
	<path fill="#FFFFFF" d="M776.311,524.897c0.307,12.13-3.476,20.082-12.735,24.974c-1.228,0.649-2.484,0.34-3.464-0.609
		c-1.014-0.981-1.335-2.462-0.491-3.43c9.095-10.429,8.783-22.4,5.985-34.848c-0.284-1.262,0.111-2.759,1.622-2.873
		c1.098-0.083,2.588,0.333,3.339,1.087C775.423,514.071,776.255,520.349,776.311,524.897z"/>
	<path fill="#FFFFFF" d="M756.165,526.308c0.297-0.846,0.698-2.482,1.44-3.946c0.578-1.141,1.699-1.873,3.123-1.42
		c1.285,0.408,2.39,1.38,2.126,2.678c-0.409,2.007-1.219,3.957-2.058,5.843c-0.516,1.159-1.503,2.169-2.953,1.808
		c-1.4-0.349-1.58-1.658-1.673-2.891C756.138,527.962,756.165,527.54,756.165,526.308z"/>
	<path fill="#442008" d="M637.275,429.402c-5.723-0.403-11.361-2.154-16.347-5.01c-7.103-4.068-12.881-10.314-16.711-17.547
		c-0.726-1.371-1.402-2.931-1-4.429c0.283-1.055,1.059-1.897,1.823-2.678c7.472-7.644,16.528-14.623,27.076-17.233
		c11.019-2.726,21.362,3.211,28.231,11.604c3.805,4.649,6.224,10.699,5.45,16.657c-0.649,4.992-3.518,9.564-7.434,12.729
		c-3.915,3.165-8.81,4.985-13.798,5.673C642.149,429.502,639.704,429.573,637.275,429.402z"/>
	<path fill="#442008" d="M805.516,428.229c-3.327-0.067-6.633-0.644-9.763-1.786c-7.493-2.735-13.822-8.848-16.204-16.461
		c-0.858-2.743-1.208-5.704-0.55-8.502c1.931-8.21,12.288-13.812,19.432-16.85c8.702-3.701,17.578-1.524,25.01,3.869
		c5.208,3.778,18.073,13.701,14.793,21.083c-3.203,7.21-12.03,13.248-19.099,16.103C814.83,427.424,810.152,428.322,805.516,428.229
		z"/>
	<path fill="#FFFFFF" d="M656.501,413.462c-0.615-0.525-1.498-0.934-1.783-1.599c-0.486-1.136-0.789-2.426-0.831-3.663
		c-0.189-5.698-3.482-9.302-7.916-12.244c-2.815-1.868-5.593-3.8-8.271-5.855c-0.488-0.375-0.503-1.478-0.545-2.255
		c-0.012-0.232,0.628-0.718,0.969-0.718c8.808,0.003,20.855,9.078,23.025,17.357c0.821,3.132-0.142,5.86-2.378,8.089
		C658.243,413.1,657.27,413.178,656.501,413.462z"/>
	<path fill="#FFFFFF" d="M827.988,404.502c-0.115,0.461-0.416,2.102-0.947,3.665c-0.439,1.293-1.607,1.952-2.909,1.794
		c-0.714-0.087-1.818-0.705-1.949-1.269c-1.409-6.063-5.735-10.077-9.728-14.363c-1.158-1.243-2.086-3.07-1.024-4.56
		c1.491-2.092,3.733-1.45,5.622-0.353c2.176,1.263,4.236,2.728,6.333,4.126C826.871,395.865,828.167,399.242,827.988,404.502z"/>
</g>
</svg>
